<svg width="674" height="623" viewBox="0 0 505.5 467.25" xmlns="http://www.w3.org/2000/svg" xmlns:xlink="http://www.w3.org/1999/xlink">
<g id="graph0" class="graph" transform="translate(49.709984901696544,383.0384420588007) scale(0.3248215310822875)">
<title>metadata</title>
<polygon fill="white" stroke="transparent" points="-4,4 -4,-1120 1232.33,-1120 1232.33,4 -4,4"/>
<!-- 1999 -->
<g id="node1" class="node">
<title>1999</title>
<text text-anchor="middle" x="27" y="-1093.8" font-family="Times,serif" font-size="14.00">1999</text>
</g>
<!-- 68 -->
<g id="node2" class="node">
<title>68</title>
<ellipse fill="none" stroke="black" cx="495" cy="-1098" rx="27" ry="18"/>
<text text-anchor="middle" x="495" y="-1093.8" font-family="Times,serif" font-size="14.00">68</text>
</g>
<!-- 2000 -->
<g id="node3" class="node">
<title>2000</title>
<text text-anchor="middle" x="27" y="-1021.8" font-family="Times,serif" font-size="14.00">2000</text>
</g>
<!-- 2000&#45;&gt;1999 -->
<!-- 82 -->
<g id="node4" class="node">
<title>82</title>
<ellipse fill="none" stroke="black" cx="160" cy="-1026" rx="27" ry="18"/>
<text text-anchor="middle" x="160" y="-1021.8" font-family="Times,serif" font-size="14.00">82</text>
</g>
<!-- 86 -->
<g id="node5" class="node">
<title>86</title>
<ellipse fill="none" stroke="black" cx="982" cy="-1026" rx="27" ry="18"/>
<text text-anchor="middle" x="982" y="-1021.8" font-family="Times,serif" font-size="14.00">86</text>
</g>
<!-- 2002 -->
<g id="node6" class="node">
<title>2002</title>
<text text-anchor="middle" x="27" y="-949.8" font-family="Times,serif" font-size="14.00">2002</text>
</g>
<!-- 2002&#45;&gt;2000 -->
<!-- 120 -->
<g id="node7" class="node">
<title>120</title>
<ellipse fill="none" stroke="black" cx="350" cy="-954" rx="27" ry="18"/>
<text text-anchor="middle" x="350" y="-949.8" font-family="Times,serif" font-size="14.00">120</text>
</g>
<!-- 2003 -->
<g id="node8" class="node">
<title>2003</title>
<text text-anchor="middle" x="27" y="-877.8" font-family="Times,serif" font-size="14.00">2003</text>
</g>
<!-- 2003&#45;&gt;2002 -->
<!-- 135 -->
<g id="node9" class="node">
<title>135</title>
<ellipse fill="none" stroke="black" cx="434" cy="-882" rx="27" ry="18"/>
<text text-anchor="middle" x="434" y="-877.8" font-family="Times,serif" font-size="14.00">135</text>
</g>
<!-- 135&#45;&gt;120 -->
<g id="edge16" class="edge">
<title>135-&gt;120</title>
<path fill="none" stroke="black" d="M417.8,-896.5C405.37,-906.86 388.01,-921.33 373.97,-933.03"/>
<polygon fill="black" stroke="black" points="371.59,-930.45 366.15,-939.54 376.07,-935.83 371.59,-930.45"/>
</g>
<!-- 144 -->
<g id="node10" class="node">
<title>144</title>
<ellipse fill="none" stroke="black" cx="350" cy="-882" rx="27" ry="18"/>
<text text-anchor="middle" x="350" y="-877.8" font-family="Times,serif" font-size="14.00">144</text>
</g>
<!-- 144&#45;&gt;120 -->
<g id="edge17" class="edge">
<title>144-&gt;120</title>
<path fill="none" stroke="black" d="M350,-900.3C350,-908.02 350,-917.29 350,-925.89"/>
<polygon fill="black" stroke="black" points="346.5,-925.9 350,-935.9 353.5,-925.9 346.5,-925.9"/>
</g>
<!-- 144&#45;&gt;135 -->
<g id="edge18" class="edge">
<title>144-&gt;135</title>
<path fill="none" stroke="black" d="M377.23,-882C383.73,-882 390.23,-882 396.73,-882"/>
<polygon fill="black" stroke="black" points="396.95,-885.5 406.95,-882 396.95,-878.5 396.95,-885.5"/>
</g>
<!-- 2004 -->
<g id="node11" class="node">
<title>2004</title>
<text text-anchor="middle" x="27" y="-805.8" font-family="Times,serif" font-size="14.00">2004</text>
</g>
<!-- 2004&#45;&gt;2003 -->
<!-- 161 -->
<g id="node12" class="node">
<title>161</title>
<ellipse fill="none" stroke="black" cx="230" cy="-810" rx="27" ry="18"/>
<text text-anchor="middle" x="230" y="-805.8" font-family="Times,serif" font-size="14.00">161</text>
</g>
<!-- 161&#45;&gt;68 -->
<g id="edge19" class="edge">
<title>161-&gt;68</title>
<path fill="none" stroke="black" d="M231.3,-828.27C233.27,-846.86 238.15,-876.89 250,-900 297.34,-992.32 409.46,-1056.15 464.05,-1082.91"/>
<polygon fill="black" stroke="black" points="462.71,-1086.14 473.24,-1087.32 465.74,-1079.83 462.71,-1086.14"/>
</g>
<!-- 161&#45;&gt;120 -->
<g id="edge20" class="edge">
<title>161-&gt;120</title>
<path fill="none" stroke="black" d="M236.16,-827.8C243.71,-846.8 257.88,-877.95 277,-900 289.49,-914.4 306.61,-927.09 321.13,-936.44"/>
<polygon fill="black" stroke="black" points="319.43,-939.51 329.77,-941.82 323.13,-933.56 319.43,-939.51"/>
</g>
<!-- 161&#45;&gt;135 -->
<g id="edge21" class="edge">
<title>161-&gt;135</title>
<path fill="none" stroke="black" d="M253.55,-818.9C284.13,-829.17 339.11,-847.73 386,-864 390.89,-865.7 396.05,-867.5 401.1,-869.28"/>
<polygon fill="black" stroke="black" points="399.99,-872.6 410.58,-872.64 402.32,-866 399.99,-872.6"/>
</g>
<!-- 2006 -->
<g id="node13" class="node">
<title>2006</title>
<text text-anchor="middle" x="27" y="-733.8" font-family="Times,serif" font-size="14.00">2006</text>
</g>
<!-- 2006&#45;&gt;2004 -->
<!-- 240 -->
<g id="node14" class="node">
<title>240</title>
<ellipse fill="none" stroke="black" cx="982" cy="-738" rx="27" ry="18"/>
<text text-anchor="middle" x="982" y="-733.8" font-family="Times,serif" font-size="14.00">240</text>
</g>
<!-- 240&#45;&gt;86 -->
<g id="edge22" class="edge">
<title>240-&gt;86</title>
<path fill="none" stroke="black" d="M982,-756.03C982,-803.71 982,-938.82 982,-997.37"/>
<polygon fill="black" stroke="black" points="978.5,-997.69 982,-1007.69 985.5,-997.69 978.5,-997.69"/>
</g>
<!-- 253 -->
<g id="node15" class="node">
<title>253</title>
<ellipse fill="none" stroke="black" cx="99" cy="-738" rx="27" ry="18"/>
<text text-anchor="middle" x="99" y="-733.8" font-family="Times,serif" font-size="14.00">253</text>
</g>
<!-- 2007 -->
<g id="node16" class="node">
<title>2007</title>
<text text-anchor="middle" x="27" y="-661.8" font-family="Times,serif" font-size="14.00">2007</text>
</g>
<!-- 2007&#45;&gt;2006 -->
<!-- 273 -->
<g id="node17" class="node">
<title>273</title>
<ellipse fill="none" stroke="black" cx="323" cy="-666" rx="27" ry="18"/>
<text text-anchor="middle" x="323" y="-661.8" font-family="Times,serif" font-size="14.00">273</text>
</g>
<!-- 273&#45;&gt;68 -->
<g id="edge23" class="edge">
<title>273-&gt;68</title>
<path fill="none" stroke="black" d="M349.59,-669.5C446.48,-679.32 775,-719.24 775,-809 775,-809 775,-809 775,-955 775,-1062.76 608.01,-1088.77 531.95,-1095.03"/>
<polygon fill="black" stroke="black" points="531.56,-1091.55 521.85,-1095.78 532.08,-1098.53 531.56,-1091.55"/>
</g>
<!-- 273&#45;&gt;82 -->
<g id="edge24" class="edge">
<title>273-&gt;82</title>
<path fill="none" stroke="black" d="M299.3,-675.01C254.09,-691.96 160,-736 160,-809 160,-809 160,-809 160,-883 160,-923 160,-969.35 160,-997.92"/>
<polygon fill="black" stroke="black" points="156.5,-997.95 160,-1007.95 163.5,-997.95 156.5,-997.95"/>
</g>
<!-- 273&#45;&gt;120 -->
<g id="edge25" class="edge">
<title>273-&gt;120</title>
<path fill="none" stroke="black" d="M318.62,-683.87C309.27,-722.94 290.08,-822.23 314,-900 317.29,-910.69 323.54,-921.15 329.93,-929.92"/>
<polygon fill="black" stroke="black" points="327.35,-932.31 336.25,-938.07 332.88,-928.02 327.35,-932.31"/>
</g>
<!-- 273&#45;&gt;135 -->
<g id="edge26" class="edge">
<title>273-&gt;135</title>
<path fill="none" stroke="black" d="M330.94,-683.55C335.81,-693.92 342.03,-707.63 347,-720 365.96,-767.22 358.74,-784.42 385,-828 391.97,-839.57 401.76,-850.8 410.76,-859.92"/>
<polygon fill="black" stroke="black" points="408.45,-862.56 418.05,-867.04 413.35,-857.55 408.45,-862.56"/>
</g>
<!-- 273&#45;&gt;144 -->
<g id="edge27" class="edge">
<title>273-&gt;144</title>
<path fill="none" stroke="black" d="M325.16,-684.15C329.83,-721.17 340.89,-808.82 346.54,-853.61"/>
<polygon fill="black" stroke="black" points="343.1,-854.28 347.83,-863.77 350.05,-853.41 343.1,-854.28"/>
</g>
<!-- 273&#45;&gt;161 -->
<g id="edge28" class="edge">
<title>273-&gt;161</title>
<path fill="none" stroke="black" d="M306.96,-680.63C295.84,-690.69 281.25,-705.14 271,-720 257.47,-739.61 246.47,-764.41 239.29,-782.84"/>
<polygon fill="black" stroke="black" points="235.95,-781.76 235.69,-792.35 242.5,-784.24 235.95,-781.76"/>
</g>
<!-- 276 -->
<g id="node18" class="node">
<title>276</title>
<ellipse fill="none" stroke="black" cx="982" cy="-666" rx="27" ry="18"/>
<text text-anchor="middle" x="982" y="-661.8" font-family="Times,serif" font-size="14.00">276</text>
</g>
<!-- 301 -->
<g id="node19" class="node">
<title>301</title>
<ellipse fill="none" stroke="black" cx="729" cy="-666" rx="27" ry="18"/>
<text text-anchor="middle" x="729" y="-661.8" font-family="Times,serif" font-size="14.00">301</text>
</g>
<!-- 2011 -->
<g id="node20" class="node">
<title>2011</title>
<text text-anchor="middle" x="27" y="-589.8" font-family="Times,serif" font-size="14.00">2011</text>
</g>
<!-- 2011&#45;&gt;2007 -->
<!-- 502 -->
<g id="node21" class="node">
<title>502</title>
<ellipse fill="none" stroke="black" cx="568" cy="-594" rx="27" ry="18"/>
<text text-anchor="middle" x="568" y="-589.8" font-family="Times,serif" font-size="14.00">502</text>
</g>
<!-- 2013 -->
<g id="node22" class="node">
<title>2013</title>
<text text-anchor="middle" x="27" y="-517.8" font-family="Times,serif" font-size="14.00">2013</text>
</g>
<!-- 2013&#45;&gt;2011 -->
<!-- 609 -->
<g id="node23" class="node">
<title>609</title>
<ellipse fill="none" stroke="black" cx="492" cy="-522" rx="27" ry="18"/>
<text text-anchor="middle" x="492" y="-517.8" font-family="Times,serif" font-size="14.00">609</text>
</g>
<!-- 2014 -->
<g id="node24" class="node">
<title>2014</title>
<text text-anchor="middle" x="27" y="-445.8" font-family="Times,serif" font-size="14.00">2014</text>
</g>
<!-- 2014&#45;&gt;2013 -->
<!-- 645 -->
<g id="node25" class="node">
<title>645</title>
<ellipse fill="none" stroke="black" cx="775" cy="-450" rx="27" ry="18"/>
<text text-anchor="middle" x="775" y="-445.8" font-family="Times,serif" font-size="14.00">645</text>
</g>
<!-- 645&#45;&gt;120 -->
<g id="edge29" class="edge">
<title>645-&gt;120</title>
<path fill="none" stroke="black" d="M789.47,-465.43C798.58,-475.41 809.77,-489.46 816,-504 843.31,-567.7 828.39,-753.11 827,-756 746.76,-922.96 485,-948.73 387.26,-952.47"/>
<polygon fill="black" stroke="black" points="386.86,-948.98 376.98,-952.8 387.09,-955.98 386.86,-948.98"/>
</g>
<!-- 645&#45;&gt;135 -->
<g id="edge30" class="edge">
<title>645-&gt;135</title>
<path fill="none" stroke="black" d="M782.51,-467.66C793.58,-493.8 813,-546.3 813,-593 813,-593 813,-593 813,-739 813,-811.81 564.65,-859.79 470.02,-875.43"/>
<polygon fill="black" stroke="black" points="469.36,-871.99 460.05,-877.05 470.48,-878.9 469.36,-871.99"/>
</g>
<!-- 645&#45;&gt;273 -->
<g id="edge31" class="edge">
<title>645-&gt;273</title>
<path fill="none" stroke="black" d="M763.72,-466.41C738.9,-499.09 675.95,-575.37 604,-612 523.78,-652.83 416.24,-662.41 360.31,-664.53"/>
<polygon fill="black" stroke="black" points="360.05,-661.03 350.16,-664.85 360.27,-668.03 360.05,-661.03"/>
</g>
<!-- 645&#45;&gt;301 -->
<g id="edge32" class="edge">
<title>645-&gt;301</title>
<path fill="none" stroke="black" d="M773.83,-468.21C771.49,-497.97 765.21,-560.81 751,-612 748.47,-621.11 744.8,-630.74 741.17,-639.27"/>
<polygon fill="black" stroke="black" points="737.86,-638.1 737.01,-648.66 744.26,-640.94 737.86,-638.1"/>
</g>
<!-- 645&#45;&gt;609 -->
<g id="edge33" class="edge">
<title>645-&gt;609</title>
<path fill="none" stroke="black" d="M749.89,-457.21C699.22,-469.74 584.7,-498.07 526.84,-512.38"/>
<polygon fill="black" stroke="black" points="525.93,-509 517.06,-514.8 527.61,-515.8 525.93,-509"/>
</g>
<!-- 648 -->
<g id="node26" class="node">
<title>648</title>
<ellipse fill="none" stroke="black" cx="982" cy="-450" rx="27" ry="18"/>
<text text-anchor="middle" x="982" y="-445.8" font-family="Times,serif" font-size="14.00">648</text>
</g>
<!-- 648&#45;&gt;276 -->
<g id="edge34" class="edge">
<title>648-&gt;276</title>
<path fill="none" stroke="black" d="M982,-468.15C982,-505.17 982,-592.82 982,-637.61"/>
<polygon fill="black" stroke="black" points="978.5,-637.77 982,-647.77 985.5,-637.77 978.5,-637.77"/>
</g>
<!-- 662 -->
<g id="node27" class="node">
<title>662</title>
<ellipse fill="none" stroke="black" cx="154" cy="-450" rx="27" ry="18"/>
<text text-anchor="middle" x="154" y="-445.8" font-family="Times,serif" font-size="14.00">662</text>
</g>
<!-- 668 -->
<g id="node28" class="node">
<title>668</title>
<ellipse fill="none" stroke="black" cx="566" cy="-450" rx="27" ry="18"/>
<text text-anchor="middle" x="566" y="-445.8" font-family="Times,serif" font-size="14.00">668</text>
</g>
<!-- 668&#45;&gt;135 -->
<g id="edge35" class="edge">
<title>668-&gt;135</title>
<path fill="none" stroke="black" d="M576.99,-466.78C593.55,-492.15 623,-544.12 623,-593 623,-593 623,-593 623,-739 623,-815.31 523.31,-855.68 468.73,-872.06"/>
<polygon fill="black" stroke="black" points="467.73,-868.7 459.1,-874.84 469.68,-875.43 467.73,-868.7"/>
</g>
<!-- 668&#45;&gt;273 -->
<g id="edge36" class="edge">
<title>668-&gt;273</title>
<path fill="none" stroke="black" d="M562.07,-468.1C556.94,-487.37 546.36,-518.78 528,-540 479.69,-595.82 400.11,-634.23 355.64,-652.61"/>
<polygon fill="black" stroke="black" points="354.15,-649.44 346.19,-656.43 356.77,-655.93 354.15,-649.44"/>
</g>
<!-- 668&#45;&gt;502 -->
<g id="edge37" class="edge">
<title>668-&gt;502</title>
<path fill="none" stroke="black" d="M566.24,-468.13C566.58,-492.33 567.21,-536.79 567.61,-565.61"/>
<polygon fill="black" stroke="black" points="564.12,-565.86 567.76,-575.81 571.12,-565.76 564.12,-565.86"/>
</g>
<!-- 668&#45;&gt;609 -->
<g id="edge38" class="edge">
<title>668-&gt;609</title>
<path fill="none" stroke="black" d="M551.02,-465.17C540.49,-475.13 526.22,-488.63 514.34,-499.86"/>
<polygon fill="black" stroke="black" points="511.81,-497.44 506.95,-506.86 516.62,-502.53 511.81,-497.44"/>
</g>
<!-- 670 -->
<g id="node29" class="node">
<title>670</title>
<ellipse fill="none" stroke="black" cx="418" cy="-450" rx="27" ry="18"/>
<text text-anchor="middle" x="418" y="-445.8" font-family="Times,serif" font-size="14.00">670</text>
</g>
<!-- 670&#45;&gt;135 -->
<g id="edge39" class="edge">
<title>670-&gt;135</title>
<path fill="none" stroke="black" d="M418.64,-468.12C421.09,-534.06 429.94,-771.94 432.97,-853.41"/>
<polygon fill="black" stroke="black" points="429.49,-853.97 433.36,-863.83 436.49,-853.71 429.49,-853.97"/>
</g>
<!-- 670&#45;&gt;273 -->
<g id="edge40" class="edge">
<title>670-&gt;273</title>
<path fill="none" stroke="black" d="M407.07,-466.78C400.22,-477.09 391.48,-491 385,-504 362.22,-549.72 342.28,-605.98 331.5,-638.44"/>
<polygon fill="black" stroke="black" points="328.12,-637.51 328.33,-648.1 334.77,-639.69 328.12,-637.51"/>
</g>
<!-- 670&#45;&gt;502 -->
<g id="edge41" class="edge">
<title>670-&gt;502</title>
<path fill="none" stroke="black" d="M421.45,-468.11C426.18,-487.69 436.43,-519.66 456,-540 477.11,-561.93 509.1,-575.81 533.49,-583.84"/>
<polygon fill="black" stroke="black" points="532.51,-587.2 543.1,-586.83 534.59,-580.52 532.51,-587.2"/>
</g>
<!-- 670&#45;&gt;609 -->
<g id="edge42" class="edge">
<title>670-&gt;609</title>
<path fill="none" stroke="black" d="M432.98,-465.17C443.51,-475.13 457.78,-488.63 469.66,-499.86"/>
<polygon fill="black" stroke="black" points="467.38,-502.53 477.05,-506.86 472.19,-497.44 467.38,-502.53"/>
</g>
<!-- 708 -->
<g id="node30" class="node">
<title>708</title>
<ellipse fill="none" stroke="black" cx="266" cy="-450" rx="27" ry="18"/>
<text text-anchor="middle" x="266" y="-445.8" font-family="Times,serif" font-size="14.00">708</text>
</g>
<!-- 708&#45;&gt;135 -->
<g id="edge43" class="edge">
<title>708-&gt;135</title>
<path fill="none" stroke="black" d="M274.58,-467.29C291.92,-500.61 331.83,-579.23 359,-648 387.92,-721.21 414.25,-810.46 426.6,-854.21"/>
<polygon fill="black" stroke="black" points="423.3,-855.38 429.37,-864.07 430.04,-853.49 423.3,-855.38"/>
</g>
<!-- 708&#45;&gt;161 -->
<g id="edge44" class="edge">
<title>708-&gt;161</title>
<path fill="none" stroke="black" d="M264.26,-468.27C258.48,-525.81 239.82,-711.34 232.75,-781.65"/>
<polygon fill="black" stroke="black" points="229.24,-781.61 231.72,-791.91 236.2,-782.31 229.24,-781.61"/>
</g>
<!-- 2015 -->
<g id="node31" class="node">
<title>2015</title>
<text text-anchor="middle" x="27" y="-373.8" font-family="Times,serif" font-size="14.00">2015</text>
</g>
<!-- 2015&#45;&gt;2014 -->
<!-- 749 -->
<g id="node32" class="node">
<title>749</title>
<ellipse fill="none" stroke="black" cx="209" cy="-378" rx="27" ry="18"/>
<text text-anchor="middle" x="209" y="-373.8" font-family="Times,serif" font-size="14.00">749</text>
</g>
<!-- 749&#45;&gt;273 -->
<g id="edge45" class="edge">
<title>749-&gt;273</title>
<path fill="none" stroke="black" d="M210.47,-396.27C214.54,-436.6 228.61,-539.08 271,-612 278.16,-624.31 288.82,-635.87 298.63,-645.03"/>
<polygon fill="black" stroke="black" points="296.45,-647.77 306.23,-651.83 301.11,-642.55 296.45,-647.77"/>
</g>
<!-- 749&#45;&gt;662 -->
<g id="edge46" class="edge">
<title>749-&gt;662</title>
<path fill="none" stroke="black" d="M197.07,-394.19C189.79,-403.45 180.34,-415.48 172.15,-425.91"/>
<polygon fill="black" stroke="black" points="169.34,-423.82 165.91,-433.84 174.84,-428.14 169.34,-423.82"/>
</g>
<!-- 2016 -->
<g id="node33" class="node">
<title>2016</title>
<text text-anchor="middle" x="27" y="-301.8" font-family="Times,serif" font-size="14.00">2016</text>
</g>
<!-- 2016&#45;&gt;2015 -->
<!-- 875 -->
<g id="node34" class="node">
<title>875</title>
<ellipse fill="none" stroke="black" cx="492" cy="-306" rx="27" ry="18"/>
<text text-anchor="middle" x="492" y="-301.8" font-family="Times,serif" font-size="14.00">875</text>
</g>
<!-- 875&#45;&gt;135 -->
<g id="edge47" class="edge">
<title>875-&gt;135</title>
<path fill="none" stroke="black" d="M518.36,-310.57C607.02,-323.31 889,-370.04 889,-449 889,-449 889,-449 889,-595 889,-718.64 849.7,-777.14 737,-828 647.65,-868.33 530.63,-878.07 471.58,-880.36"/>
<polygon fill="black" stroke="black" points="471.12,-876.87 461.25,-880.7 471.36,-883.87 471.12,-876.87"/>
</g>
<!-- 875&#45;&gt;273 -->
<g id="edge48" class="edge">
<title>875-&gt;273</title>
<path fill="none" stroke="black" d="M468.14,-314.49C421.56,-330.77 323,-374.08 323,-449 323,-449 323,-449 323,-523 323,-563 323,-609.35 323,-637.92"/>
<polygon fill="black" stroke="black" points="319.5,-637.95 323,-647.95 326.5,-637.95 319.5,-637.95"/>
</g>
<!-- 875&#45;&gt;502 -->
<g id="edge49" class="edge">
<title>875-&gt;502</title>
<path fill="none" stroke="black" d="M509.6,-319.96C535.66,-340.36 583.43,-382.78 602,-432 619.46,-478.26 597.76,-535.57 581.88,-567.84"/>
<polygon fill="black" stroke="black" points="578.63,-566.51 577.19,-577.01 584.86,-569.7 578.63,-566.51"/>
</g>
<!-- 875&#45;&gt;609 -->
<g id="edge50" class="edge">
<title>875-&gt;609</title>
<path fill="none" stroke="black" d="M492,-324.15C492,-361.17 492,-448.82 492,-493.61"/>
<polygon fill="black" stroke="black" points="488.5,-493.77 492,-503.77 495.5,-493.77 488.5,-493.77"/>
</g>
<!-- 875&#45;&gt;749 -->
<g id="edge51" class="edge">
<title>875-&gt;749</title>
<path fill="none" stroke="black" d="M466.89,-313.21C416.22,-325.74 301.7,-354.07 243.84,-368.38"/>
<polygon fill="black" stroke="black" points="242.93,-365 234.06,-370.8 244.61,-371.8 242.93,-365"/>
</g>
<!-- 2017 -->
<g id="node35" class="node">
<title>2017</title>
<text text-anchor="middle" x="27" y="-229.8" font-family="Times,serif" font-size="14.00">2017</text>
</g>
<!-- 2017&#45;&gt;2016 -->
<!-- 915 -->
<g id="node36" class="node">
<title>915</title>
<ellipse fill="none" stroke="black" cx="226" cy="-234" rx="27" ry="18"/>
<text text-anchor="middle" x="226" y="-229.8" font-family="Times,serif" font-size="14.00">915</text>
</g>
<!-- 970 -->
<g id="node37" class="node">
<title>970</title>
<ellipse fill="none" stroke="black" cx="1023" cy="-234" rx="27" ry="18"/>
<text text-anchor="middle" x="1023" y="-229.8" font-family="Times,serif" font-size="14.00">970</text>
</g>
<!-- 977 -->
<g id="node39" class="node">
<title>977</title>
<ellipse fill="none" stroke="black" cx="1141" cy="-234" rx="27" ry="18"/>
<text text-anchor="middle" x="1141" y="-229.8" font-family="Times,serif" font-size="14.00">977</text>
</g>
<!-- 970&#45;&gt;977 -->
<g id="edge52" class="edge">
<title>970-&gt;977</title>
<path fill="none" stroke="black" d="M1050.2,-234C1067.89,-234 1085.58,-234 1103.27,-234"/>
<polygon fill="black" stroke="black" points="1103.69,-237.5 1113.69,-234 1103.69,-230.5 1103.69,-237.5"/>
</g>
<!-- 975 -->
<g id="node38" class="node">
<title>975</title>
<ellipse fill="none" stroke="black" cx="154" cy="-234" rx="27" ry="18"/>
<text text-anchor="middle" x="154" y="-229.8" font-family="Times,serif" font-size="14.00">975</text>
</g>
<!-- 975&#45;&gt;253 -->
<g id="edge53" class="edge">
<title>975-&gt;253</title>
<path fill="none" stroke="black" d="M143.4,-250.84C127.41,-276.28 99,-328.36 99,-377 99,-377 99,-377 99,-595 99,-635 99,-681.35 99,-709.92"/>
<polygon fill="black" stroke="black" points="95.5,-709.95 99,-719.95 102.5,-709.95 95.5,-709.95"/>
</g>
<!-- 975&#45;&gt;301 -->
<g id="edge54" class="edge">
<title>975-&gt;301</title>
<path fill="none" stroke="black" d="M174.48,-246.11C179.44,-248.4 184.81,-250.54 190,-252 335.45,-292.83 383.37,-244.37 528,-288 610.03,-312.75 699,-291.32 699,-377 699,-377 699,-377 699,-523 699,-564.07 711.16,-610.4 720,-638.65"/>
<polygon fill="black" stroke="black" points="716.67,-639.75 723.07,-648.19 723.34,-637.6 716.67,-639.75"/>
</g>
<!-- 975&#45;&gt;662 -->
<g id="edge55" class="edge">
<title>975-&gt;662</title>
<path fill="none" stroke="black" d="M154,-252.15C154,-289.17 154,-376.82 154,-421.61"/>
<polygon fill="black" stroke="black" points="150.5,-421.77 154,-431.77 157.5,-421.77 150.5,-421.77"/>
</g>
<!-- 975&#45;&gt;915 -->
<g id="edge56" class="edge">
<title>975-&gt;915</title>
<path fill="none" stroke="black" d="M181,-234C183.61,-234 186.23,-234 188.84,-234"/>
<polygon fill="black" stroke="black" points="188.93,-237.5 198.93,-234 188.93,-230.5 188.93,-237.5"/>
</g>
<!-- 2019 -->
<g id="node40" class="node">
<title>2019</title>
<text text-anchor="middle" x="27" y="-157.8" font-family="Times,serif" font-size="14.00">2019</text>
</g>
<!-- 2019&#45;&gt;2017 -->
<!-- 1217 -->
<g id="node41" class="node">
<title>1217</title>
<ellipse fill="none" stroke="black" cx="1181" cy="-162" rx="30.2" ry="18"/>
<text text-anchor="middle" x="1181" y="-157.8" font-family="Times,serif" font-size="14.00">1217</text>
</g>
<!-- 1217&#45;&gt;977 -->
<g id="edge57" class="edge">
<title>1217-&gt;977</title>
<path fill="none" stroke="black" d="M1171.72,-179.24C1166.83,-187.81 1160.71,-198.51 1155.23,-208.1"/>
<polygon fill="black" stroke="black" points="1152.15,-206.43 1150.23,-216.85 1158.23,-209.91 1152.15,-206.43"/>
</g>
<!-- 1225 -->
<g id="node42" class="node">
<title>1225</title>
<ellipse fill="none" stroke="black" cx="1102" cy="-162" rx="30.2" ry="18"/>
<text text-anchor="middle" x="1102" y="-157.8" font-family="Times,serif" font-size="14.00">1225</text>
</g>
<!-- 1225&#45;&gt;977 -->
<g id="edge58" class="edge">
<title>1225-&gt;977</title>
<path fill="none" stroke="black" d="M1111.05,-179.24C1115.82,-187.81 1121.78,-198.51 1127.13,-208.1"/>
<polygon fill="black" stroke="black" points="1124.08,-209.82 1132,-216.85 1130.19,-206.41 1124.08,-209.82"/>
</g>
<!-- 1263 -->
<g id="node43" class="node">
<title>1263</title>
<ellipse fill="none" stroke="black" cx="1023" cy="-162" rx="30.2" ry="18"/>
<text text-anchor="middle" x="1023" y="-157.8" font-family="Times,serif" font-size="14.00">1263</text>
</g>
<!-- 1263&#45;&gt;970 -->
<g id="edge59" class="edge">
<title>1263-&gt;970</title>
<path fill="none" stroke="black" d="M1023,-180.3C1023,-188.02 1023,-197.29 1023,-205.89"/>
<polygon fill="black" stroke="black" points="1019.5,-205.9 1023,-215.9 1026.5,-205.9 1019.5,-205.9"/>
</g>
<!-- 2020 -->
<g id="node44" class="node">
<title>2020</title>
<text text-anchor="middle" x="27" y="-85.8" font-family="Times,serif" font-size="14.00">2020</text>
</g>
<!-- 2020&#45;&gt;2019 -->
<!-- 1360 -->
<g id="node45" class="node">
<title>1360</title>
<ellipse fill="none" stroke="black" cx="1160" cy="-90" rx="30.2" ry="18"/>
<text text-anchor="middle" x="1160" y="-85.8" font-family="Times,serif" font-size="14.00">1360</text>
</g>
<!-- 1360&#45;&gt;1225 -->
<g id="edge60" class="edge">
<title>1360-&gt;1225</title>
<path fill="none" stroke="black" d="M1147.13,-106.54C1139.54,-115.69 1129.8,-127.45 1121.31,-137.69"/>
<polygon fill="black" stroke="black" points="1118.52,-135.57 1114.84,-145.51 1123.91,-140.04 1118.52,-135.57"/>
</g>
<!-- 2021 -->
<g id="node46" class="node">
<title>2021</title>
<text text-anchor="middle" x="27" y="-13.8" font-family="Times,serif" font-size="14.00">2021</text>
</g>
<!-- 2021&#45;&gt;2020 -->
<!-- 1471 -->
<g id="node47" class="node">
<title>1471</title>
<ellipse fill="none" stroke="black" cx="965" cy="-18" rx="30.2" ry="18"/>
<text text-anchor="middle" x="965" y="-13.8" font-family="Times,serif" font-size="14.00">1471</text>
</g>
<!-- 1471&#45;&gt;135 -->
<g id="edge61" class="edge">
<title>1471-&gt;135</title>
<path fill="none" stroke="black" d="M957.49,-35.66C946.42,-61.8 927,-114.3 927,-161 927,-161 927,-161 927,-595 927,-716.5 894.62,-777.73 784,-828 728.56,-853.19 549.21,-871.14 471.01,-877.97"/>
<polygon fill="black" stroke="black" points="470.34,-874.51 460.68,-878.85 470.94,-881.49 470.34,-874.51"/>
</g>
<!-- 1471&#45;&gt;970 -->
<g id="edge62" class="edge">
<title>1471-&gt;970</title>
<path fill="none" stroke="black" d="M964.21,-36.14C963.42,-66.35 964.47,-130.52 984,-180 988.32,-190.95 995.49,-201.68 1002.5,-210.58"/>
<polygon fill="black" stroke="black" points="1000,-213.05 1009.09,-218.51 1005.39,-208.58 1000,-213.05"/>
</g>
<!-- 1471&#45;&gt;1225 -->
<g id="edge63" class="edge">
<title>1471-&gt;1225</title>
<path fill="none" stroke="black" d="M979.4,-33.93C1003.49,-58.9 1052.09,-109.27 1080.33,-138.54"/>
<polygon fill="black" stroke="black" points="1077.92,-141.08 1087.38,-145.84 1082.95,-136.22 1077.92,-141.08"/>
</g>
<!-- 1568 -->
<g id="node48" class="node">
<title>1568</title>
<ellipse fill="none" stroke="black" cx="1160" cy="-18" rx="30.2" ry="18"/>
<text text-anchor="middle" x="1160" y="-13.8" font-family="Times,serif" font-size="14.00">1568</text>
</g>
<!-- 1568&#45;&gt;977 -->
<g id="edge64" class="edge">
<title>1568-&gt;977</title>
<path fill="none" stroke="black" d="M1174.03,-34.22C1199.23,-63.49 1247.09,-129.2 1220,-180 1210.16,-198.44 1190.74,-211.61 1173.62,-220.2"/>
<polygon fill="black" stroke="black" points="1171.99,-217.1 1164.42,-224.51 1174.96,-223.44 1171.99,-217.1"/>
</g>
<!-- 1568&#45;&gt;1225 -->
<g id="edge65" class="edge">
<title>1568-&gt;1225</title>
<path fill="none" stroke="black" d="M1146.15,-34.12C1137.67,-44.17 1127.28,-58.04 1121,-72 1112.16,-91.66 1107.35,-115.65 1104.78,-133.77"/>
<polygon fill="black" stroke="black" points="1101.28,-133.57 1103.48,-143.94 1108.22,-134.46 1101.28,-133.57"/>
</g>
<!-- 1568&#45;&gt;1360 -->
<g id="edge66" class="edge">
<title>1568-&gt;1360</title>
<path fill="none" stroke="black" d="M1160,-36.3C1160,-44.02 1160,-53.29 1160,-61.89"/>
<polygon fill="black" stroke="black" points="1156.5,-61.9 1160,-71.9 1163.5,-61.9 1156.5,-61.9"/>
</g>
</g>
</svg>